# xmcd CD database file
#
# Track frame offsets:
#	150
#	1845
#	39810
#	73989
#	138630
#	169050
#	221125
#	254830
#	262620
#	273936
#	282150
#	320105
#
# Disc length: 4368 seconds
#
# Revision: 0
# Processed by: cddbd v1.5.2PL0 Copyright (c) Steve Scherf et al.
# Submitted via: CDex 1.51
#
DISCID=b5110e0c
DTITLE=Djabe - Message From The Road [CD 1)
DYEAR=2007
DGENRE=Jazz
TTITLE0=Rochester Intro
TTITLE1=Doromb
TTITLE2=Message From Iceworld
TTITLE3=Omachule
TTITLE4=Slices Of Life
TTITLE5=Rush For Ménes
TTITLE6=Waterfall
TTITLE7=Venezia
TTITLE8=Flower Stillness
TTITLE9=Scenes - Sunset At The Seaside
TTITLE10=Indian Experience
TTITLE11=Night In Kolkata
EXTD=YEAR: 2007
EXTT0=
EXTT1=
EXTT2=
EXTT3=
EXTT4=
EXTT5=
EXTT6=
EXTT7=
EXTT8=
EXTT9=
EXTT10=
EXTT11=
PLAYORDER=
